<?xml version="1.0" encoding="utf-8"?>
<!-- Generator: Adobe Illustrator 18.1.1, SVG Export Plug-In . SVG Version: 6.00 Build 0)  -->
<svg version="1.1" id="Layer_1" xmlns="http://www.w3.org/2000/svg" xmlns:xlink="http://www.w3.org/1999/xlink" x="0px" y="0px"
	 viewBox="0 0 200 200" enable-background="new 0 0 200 200" xml:space="preserve">
	<g>
		<g>
			<path fill="#ffffff" d="M95.9,48.5C95.9,48.5,95.9,48.5,95.9,48.5C95.9,48.5,95.9,48.5,95.9,48.5C95.9,48.5,95.9,48.5,95.9,48.5    C95.8,48.5,95.8,48.5,95.9,48.5c-10.5-0.1-20.3,4-27.7,11.4c-7.6,7.5-11.8,17.6-11.8,28.3v1.8c0,5.6,4.6,10.2,10.2,10.2h11.9    l14.1,15.7L81.4,129c-0.5,0.6-0.6,1.5-0.3,2.2c0.3,0.7,1.1,1.2,1.9,1.2h12.2c0.2,0,0.4,0,0.6-0.1c0.2,0.1,0.4,0.1,0.6,0.1h12.2    c0.8,0,1.6-0.5,1.9-1.2c0.3-0.7,0.2-1.6-0.3-2.2l-11.1-13.2l14.1-15.7l11.9,0c5.6,0,10.2-4.6,10.2-10.2v-1.8    c0-10.7-4.2-20.8-11.8-28.3C116.1,52.5,106.3,48.4,95.9,48.5z M96.5,128.3c-0.2,0-0.4,0-0.6,0.1c-0.2-0.1-0.4-0.1-0.6-0.1h-7.7    l8.3-9.9l8.3,9.9H96.5z M131.2,89.9c0,3.3-2.7,6-6,6h-12.6l-5.3,0c-2.8,0-5.1-2.3-5.1-5.1c0-2.8,2.3-5.1,5.1-5.1    c2.8,0,5.1,2.3,5.1,5.1c0,1.2,0.9,2.1,2.1,2.1c1.2,0,2.1-0.9,2.1-2.1c0-5.2-4.2-9.3-9.3-9.3c-5.1,0-9.3,4.2-9.3,9.3    c0,5.1,4.2,9.3,9.4,9.3l0.3,0l-11.7,13.1l-11.7-13.1l0.4,0c5.2,0,9.3-4.2,9.3-9.3c0-5.2-4.2-9.3-9.3-9.3s-9.3,4.2-9.3,9.3    c0,1.2,0.9,2.1,2.1,2.1s2.1-0.9,2.1-2.1c0-2.8,2.3-5.1,5.1-5.1c2.8,0,5.1,2.3,5.1,5.1c0,2.8-2.3,5.1-5.1,5.1l-18,0    c-3.3,0-6-2.7-6-6v-1.8c0-9.6,3.7-18.6,10.5-25.3c6.6-6.6,15.3-10.2,24.5-10.2c0.1,0,0.2,0,0.3,0c0,0,0,0,0,0    c9.3,0,18.1,3.5,24.7,10.2c6.8,6.7,10.5,15.7,10.5,25.3V89.9z"/>
			<path fill="#ffffff" d="M95.9,25c-36.1,0-65.4,29.4-65.4,65.4s29.4,65.4,65.4,65.4s65.4-29.4,65.4-65.4S131.9,25,95.9,25z     M95.9,151.7c-33.8,0-61.2-27.5-61.2-61.2s27.5-61.2,61.2-61.2s61.2,27.5,61.2,61.2S129.6,151.7,95.9,151.7z"/>
		</g>

	</g>
</svg>
