<?xml version="1.0" encoding="utf-8"?>
<!-- Generator: Adobe Illustrator 18.1.0, SVG Export Plug-In . SVG Version: 6.00 Build 0)  -->
<svg version="1.1" id="Layer_1" xmlns="http://www.w3.org/2000/svg" xmlns:xlink="http://www.w3.org/1999/xlink" x="0px" y="0px"
	 viewBox="0 0 600 200" enable-background="new 0 0 600 200" xml:space="preserve">
<g>
	<path fill="#199DD6" d="M38.3,42.6c0-6.2,5.1-11.2,11-11.2c6.2,0,10.9,5,10.9,11.2v80.9h44.3c5.8,0,11,5,11,10.9
		c0,6.1-5,10.6-11,10.6H51.1c-8.3,0-12.8-5.9-12.8-12.8V42.6z"/>
	<path fill="#199DD6" d="M96.9,74.4c-3.5-8.2,2.2-15.8,10.2-15.8c5,0,9,2.7,11,8.3l17.6,45.4c0.3,0.8,0.6,1,1,1c0.3,0,0.6,0,1-1
		l16.6-45.4c1.9-5.3,5.9-8.3,11-8.3c8.3,0,13.8,8,10.2,16l-29.9,69.6c-6.7,15.7-15.2,25.7-21.3,29.7c-2.4,1.6-5.8,3-8.8,3
		c-5.8,0-10.7-3.8-10.7-10.1c0-3.7,1.8-6.4,4.8-8.6c4.8-3.4,11-9.4,14.7-19.7L96.9,74.4z"/>
	<path fill="#199DD6" d="M243.6,118.4c0,17.9-14.9,27.8-33.4,27.8c-15,0-24.6-4.3-30.5-9.3c-3.8-3.2-5-9.3-1.9-13.3
		c3.2-4.3,8.6-5.3,13.9-1.9c5,3.2,11.5,5.3,19,5.3c8.3,0,12.2-3,12.2-7.4c0-3.5-2.6-5.9-9.3-7.5c-5.8-1.3-5.6-1.1-11.8-2.7
		c-13.1-3.4-23.3-10.7-23.3-24.5c0-17.3,13.9-26.7,32.6-26.7c10.1,0,20.5,2.6,26.1,7.2c4.6,3.8,4.3,10.4,1,14.2
		c-3.2,3.5-8.6,4-13.9,1.3c-4.2-2.1-9.8-3.5-13.9-3.5c-8,0-11.4,3-11.4,6.9c0,3.4,2.4,5.6,9.6,7.2l11.4,2.6
		C235.7,97.9,243.6,105.8,243.6,118.4z"/>
	<path fill="#199DD6" d="M276.4,146.2c-19.8,0-28.8-13.6-28.8-31.5V51.6c0-6.2,4.6-11.2,10.7-11.2c5.9,0,10.7,5,10.7,11.2v10.9h20
		c5.3,0,9.9,4,9.9,9.6c0,5.3-4.6,9.3-9.9,9.3h-20v32.9c0,7.7,3.4,11.8,10.4,11.8c3.5,0,7-1,9.9-1.8c8.2-1.9,13.3,3.2,13.3,9.1
		c0,3.5-1.8,7.2-6.7,9.4C290.4,145.4,282.5,146.2,276.4,146.2z"/>
	<path fill="#199DD6" d="M374.9,129.9c0,3.7-1,5.6-3.8,7.5c-4.5,3-16,8.8-33.7,8.8c-23.2,0-33.7-13-33.7-28.1
		c0-13.6,9.4-26.1,32.9-26.1c7,0,11.7,1,17.7,2.4v-4.3c0-8.3-4-12.5-15.2-12.5c-5.6,0-11.4,1.4-15.4,2.7c-9.1,2.9-14.7-1.8-14.7-8.3
		c0-3.7,1.6-7.5,7-9.8c4.5-1.9,13.8-4,23.5-4c22.5,0,35.3,9.9,35.3,32.5V129.9z M354.2,123.8v-14.4c-5.4-1.6-9.9-2.6-16-2.6
		c-8.6,0-13.9,4.3-13.9,10.4c0,7,5.6,10.7,14.4,10.7C347.5,128,352.5,125,354.2,123.8z"/>
	<path fill="#199DD6" d="M454.8,113c-1.8,19.5-15.7,33.3-37.9,33.3c-16.3,0-28.9-6.9-33.6-10.1c-2.9-1.9-3.8-4-3.8-7.5V41.2
		c0-6.2,4.6-11,10.7-11c5.9,0,10.7,4.8,10.7,11v21.1c4.8-2.1,12.5-4,18.9-4c21.1,0,33.1,12.8,35,32.6
		C455.3,96.8,455.3,107.2,454.8,113z M433.4,94.4c-0.6-9.9-5.4-15.7-15.7-15.7c-7,0-14.1,2.6-16.8,4.3v37.7c2.6,2.2,9.8,5,15.5,5
		c10.4,0,16.1-5.9,16.9-16.3C433.7,105.1,433.5,97.9,433.4,94.4z"/>
	<path fill="#199DD6" d="M481.7,41.5v93.2c0,6.1-4.5,11-10.7,11c-5.8,0-10.7-5-10.7-11V41.5c0-6.2,4.6-11.2,10.7-11.2
		C476.9,30.3,481.7,35.3,481.7,41.5z"/>
	<path fill="#199DD6" d="M561.7,98.9c0,6.2-3.2,10.7-11,10.7h-42.5v1.6c0,10.1,7.7,15.5,18.4,15.5c5.8,0,11.7-1.4,17.1-3.5
		c8.5-3.2,14.1,2.6,14.1,8.5c0,3-1.1,6.4-5.4,9c-5.9,3.5-16.1,5.6-26.4,5.6c-22.1,0-36.9-13.9-38.5-33.9c-0.5-6.2-0.3-15,0-20
		c1.9-20.8,16.8-34.1,37.7-34.1c21.7,0,36.6,14.6,36.6,37.1V98.9z M539.3,95.1c1.1,0,1.8-0.6,1.8-1.9c0.5-9.8-5.6-16.3-16-16.3
		c-11.4,0-16.9,7.2-16.9,18.2H539.3z"/>
</g>
</svg>
