<svg xmlns="http://www.w3.org/2000/svg" width="64" height="64" viewBox="0 0 64 64">
  <path fill="#F9C730" fill-rule="evenodd" d="M50.7273385,13.9340351 C45.7380392,11.0596138 40.6280328,9.25174149 35.2558872,9.57332321 C34.4701528,9.6373207 33.7096986,9.78786285 32.9881895,10.0406643 C30.8220679,10.7389431 29.3382826,12.1345895 29.292505,14.0294619 C29.2474107,15.8906275 30.847348,17.5588896 33.243724,18.4209199 C33.7245023,18.6336376 34.2123409,18.8176588 34.6871977,18.9834602 C38.184285,20.1802817 41.6301288,21.524229 44.9689305,23.1469413 C53.6425269,27.4816898 62.5550321,34.8359357 59.7311711,46.1901389 C59.6480427,46.5237913 60.137931,46.6884539 60.2902951,46.3778042 C67.724481,31.2163194 61.895243,20.9193275 50.7273385,13.9340351 Z M12.9480914,50.0709834 C17.937163,52.945177 23.0473972,54.7530493 28.4195427,54.4316953 C29.2052771,54.3676978 29.9657313,54.2171557 30.6872404,53.9643542 C32.8531343,53.2658477 34.3369196,51.8702013 34.3829249,49.9755566 C34.4277915,48.114391 32.8280819,46.4461289 30.431706,45.5840986 C29.9509276,45.3711532 29.4628613,45.1871319 28.9882322,45.0213306 C25.4909172,43.8247369 22.0450734,42.4807895 18.7062717,40.8578494 C10.0326753,36.5233287 1.12017011,29.1690828 3.94425884,17.8146518 C4.02715951,17.4812272 3.53727122,17.3165646 3.38490707,17.6272143 C-4.04905103,32.7884714 1.77995923,43.0854633 12.9480914,50.0709834 Z M61.4096819,17.3782846 C58.2239276,11.5943686 53.5748854,7.00750194 47.7420034,3.9593081 C43.4810457,1.48230897 38.0881749,0.00239537708 32.2224971,0.00239537708 C18.44641,0.00239537708 7.27668355,8.16401183 7.25732488,18.2373542 C7.25732488,18.2462364 7.25709713,18.2548908 7.25709713,18.2635453 C7.25709713,20.910673 8.02757231,23.4261617 9.41297003,25.6970479 C9.51226864,25.8459958 9.61407248,25.9931217 9.7208868,26.1372869 C11.4028138,28.3856259 14.1214548,30.3417629 17.0698945,32.0022815 L17.0696667,32.0022815 C21.3479334,34.3929637 26.0090463,36.1204406 28.7386192,37.2598693 C36.7603977,40.6084642 44.269513,43.0535784 44.4897464,50.7788276 C44.6068094,54.8796778 40.6792763,57.763209 37.7105669,58.967774 C34.3562783,60.1739331 31.5980091,60.3638759 27.7057771,60.0757733 C24.5856145,59.7523696 21.514418,59.0716275 18.5769102,57.9923246 C14.4881308,56.447958 10.8890119,54.3159988 7.81234942,51.6260542 C5.98762369,50.0306719 4.34669149,48.2391975 2.89684077,46.2570972 C2.63082983,45.8931541 2.04915865,46.2338667 2.26552029,46.6265062 C5.45127458,52.4104221 10.1003168,56.9975166 15.9331988,60.0457104 C20.1943843,62.5224818 25.587255,64.0023954 31.4529329,64.0023954 C45.2287922,64.0023954 56.3985186,55.8407789 56.4178773,45.7674366 C56.4178773,45.7587821 56.4181051,45.7501277 56.4181051,45.7412455 C56.4181051,43.0941178 55.6476299,40.578629 54.2624599,38.3079706 C54.1631613,38.1590227 54.0611297,38.011669 53.9545431,37.8675039 C52.2723883,35.6193926 49.5537474,33.6632556 46.6055354,32.0025093 L46.6057632,32.0025093 C42.3272688,29.611827 37.6661559,27.8843502 34.9368107,26.7451492 C26.9148045,23.3963266 19.4056892,20.9512123 19.1854558,13.2261909 C19.0683928,9.12511299 22.9959259,6.24158174 25.964863,5.03724455 C29.3191516,3.83085761 32.0771931,3.64114261 35.9694251,3.92901747 C39.0898154,4.25264893 42.1610119,4.93316321 45.0985197,6.01246616 C49.1870714,7.5570605 52.786418,9.68901974 55.8628528,12.3787365 C57.6875785,13.9741189 59.3287385,15.7655933 60.7783614,17.7476936 C61.0443724,18.1116367 61.6260435,17.7711518 61.4096819,17.3782846 Z"/>
</svg>
